# xmcd
#
# Track frame offsets:
#	150
#	14125
#	27643
#	42772
#	57917
#	68551
#	82936
#	95649
#	109868
#	125512
#	140723
#	149938
#	162124
#	173916
#	188488
#	201003
#	212459
#
# Disc length: 3089 seconds
#
# Revision: 1
# Processed by: cddbd v1.5.2PL0 Copyright (c) Steve Scherf et al.
# Submitted via: audiograbber 1.83.01
#
DISCID=f80c0f11
DTITLE=JOÃO LACERDA - PENSE NUMA COISA BOA
DYEAR=1900
DGENRE=FORRÓ
TTITLE0=PENSE NUMA COISA BOA(PART. NANDO CORDEL)
TTITLE1=PROMESSAS DE AMOR
TTITLE2=XOTE DO BRASIL(PART. FRANK AGUIAR)
TTITLE3=POR QUE(PART. DORGIVAL DANTAS)
TTITLE4=AMANDO GOSTOSO
TTITLE5=BOTA PEGADO PAREA(PART. EDSON LIMA)
TTITLE6=O PIRANGUEIRO
TTITLE7=SURRA DE AMOR(PART. JOSÉ ORLANDO)
TTITLE8=TALISMÃ(PART. ADILSON RAMOS)
TTITLE9=MINHA MELODIA-TENENTE BEZERRA(PART. GENIVAL LACERDA)
TTITLE10=JÁ É MADRUGADA(PART. MACIEL MELO)
TTITLE11=VOUTOU DE BANDEJA
TTITLE12=MORENA BELA(PART. TARGINO GONGIM)
TTITLE13=DIZ QUE ME AMA(PART. FALAMANSA)
TTITLE14=PODE FALAR(PART.TRIO NORDESTINO)
TTITLE15=TÔ BEBENDO, TÔ PAGANDO-CABRA DESMANTELADO(PART. SIRANO E SIRINO)
TTITLE16=VIDA DE SHEIK
EXTD=
EXTT0=
EXTT1=
EXTT2=
EXTT3=
EXTT4=
EXTT5=
EXTT6=
EXTT7=
EXTT8=
EXTT9=
EXTT10=
EXTT11=
EXTT12=
EXTT13=
EXTT14=
EXTT15=
EXTT16=
PLAYORDER=
